# xmcd
#
# Track frame offsets: 
#        150
#        20390
#        34865
#        49475
#        71200
#        89710
#        109590
#        120955
#        143225
#        159705
#        178805
#        193820
#
# Disc length: 2930 seconds
#
# Revision: 0
# Processed by: cddbd v1.5.2PL0 Copyright (c) Steve Scherf et al.
# Submitted via: ExactAudioCopy v0.95b4
#
DISCID=b00b700c
DTITLE=Deanna Varagona - Goodbyes Have All Been Taken
DYEAR=2003
DGENRE=Country
TTITLE0=Faye Got Lost
TTITLE1=Little Randall
TTITLE2=Gardener Man
TTITLE3=I Better Stay Away
TTITLE4=In Heat
TTITLE5=Folding The Clothes
TTITLE6=Hollow Town
TTITLE7=Angel On His Knee
TTITLE8=Dag Rag
TTITLE9=My Better Years
TTITLE10=Starin' Out My Window
TTITLE11=Choose Your Way
EXTD=
EXTT0=
EXTT1=
EXTT2=
EXTT3=
EXTT4=
EXTT5=
EXTT6=
EXTT7=
EXTT8=
EXTT9=
EXTT10=
EXTT11=
PLAYORDER=
